<svg height="499pt" viewBox="-10 0 499 499.68144" width="499pt" xmlns="http://www.w3.org/2000/svg"><path d="m393.339844 45.789062c9.308594.011719 16.851562 7.554688 16.859375 16.863282 0 3.3125 2.683593 6 6 6 3.3125 0 6-2.6875 6-6-.015625-13.621094-9.539063-25.382813-22.859375-28.230469v-7.191406c0-3.3125-2.683594-6-6-6-3.3125 0-6 2.6875-6 6v7.191406c-14.445313 3.070313-24.242188 16.554687-22.695313 31.242187 1.542969 14.6875 13.925781 25.839844 28.695313 25.839844 9.308594-.046875 16.890625 7.460938 16.9375 16.769532.042968 9.308593-7.464844 16.890624-16.773438 16.9375-.054687 0-.105468-.007813-.164062-.007813-.054688 0-.109375.003906-.164063.007813-9.238281-.097657-16.679687-7.609376-16.691406-16.851563 0-3.3125-2.6875-6-6-6s-6 2.6875-6 6c.015625 13.621094 9.539063 25.378906 22.855469 28.226563v8.230468c0 3.3125 2.6875 6 6 6 3.316406 0 6-2.6875 6-6v-8.230468c14.445312-3.070313 24.242187-16.554688 22.699218-31.242188-1.542968-14.6875-13.929687-25.839844-28.699218-25.839844-9.308594 0-16.855469-7.546875-16.855469-16.859375 0-9.308593 7.546875-16.855469 16.855469-16.855469zm0 0"/><path d="m479.339844 86.023438c.011718-46.71875-37.273438-84.902344-83.980469-86.0000005-46.707031-1.0937495-85.746094 35.2968745-87.925781 81.9687505-2.175782 46.667968 33.300781 86.539062 79.90625 89.796874v72.460938c-15.46875-26.167969-43.601563-42.230469-74-42.25-3.3125 0-6 2.6875-6 6 .0625 45.140625 34.972656 82.570312 80 85.765625v60.484375c-15.46875-26.167969-43.601563-42.230469-74-42.25-3.3125 0-6 2.6875-6 6 .0625 45.140625 34.972656 82.570312 80 85.765625v89.914063c0 3.316406 2.6875 6 6 6 3.316406 0 6-2.683594 6-6v-89.914063c45.027344-3.199219 79.941406-40.628906 80-85.769531 0-3.3125-2.683594-6-6-6-30.398438.023437-58.53125 16.085937-74 42.253906v-60.484375c45.027344-3.199219 79.941406-40.628906 80-85.769531 0-3.3125-2.683594-6-6-6-30.398438.023437-58.53125 16.085937-74 42.253906v-72.460938c45.027344-3.195312 79.941406-40.625 80-85.765624zm-159.734375 128.234374c35.902343 3.101563 64.371093 31.574219 67.472656 67.476563-35.902344-3.101563-64.375-31.570313-67.472656-67.476563zm0 110c35.902343 3.101563 64.371093 31.574219 67.472656 67.476563-35.902344-3.101563-64.375-31.570313-67.472656-67.476563zm147.472656 0c-3.101563 35.90625-31.570313 64.375-67.472656 67.476563 3.097656-35.902344 31.570312-64.375 67.472656-67.476563zm0-110c-3.101563 35.90625-31.570313 64.375-67.472656 67.476563 3.097656-35.902344 31.570312-64.375 67.472656-67.476563zm-73.738281-54.234374c-40.867188 0-74-33.132813-74-74 0-40.867188 33.132812-74 74-74 40.871094 0 74 33.132812 74 74-.042969 40.851562-33.148438 73.953124-74 74zm0 0"/><path d="m309.695312 250.164062c.804688-2.472656-.074218-5.179687-2.171874-6.707031l-39-28.394531v-44.609375c0-3.316406-2.6875-6-6-6s-6 2.683594-6 6v35.871094l-97.828126-71.222657c-2.105468-1.53125-4.957031-1.53125-7.0625 0l-148.824218 108.355469c-2.101563 1.527344-2.976563 4.234375-2.171875 6.707031.800781 2.472657 3.105469 4.144532 5.703125 4.144532h37.59375v169.78125c0 3.3125 2.683594 6 6 6h210.46875c3.3125 0 6-2.6875 6-6v-169.78125h37.589844c2.597656 0 4.898437-1.675782 5.703124-4.144532zm-125.492187 167.925782h-58.074219v-48.730469h58.074219zm76.199219-175.78125c-3.3125 0-6 2.683594-6 6v169.78125h-58.199219v-54.730469c0-3.3125-2.6875-6-6-6h-70.074219c-3.3125 0-6 2.6875-6 6v54.730469h-58.199218v-169.78125c0-3.316406-2.6875-6-6-6h-25.152344l130.386718-94.929688 130.390626 94.929688zm0 0"/></svg>